<svg xmlns="http://www.w3.org/2000/svg" xmlns:xlink="http://www.w3.org/1999/xlink" width="200" zoomAndPan="magnify" viewBox="0 0 150 74.999997" height="100" preserveAspectRatio="xMidYMid meet" version="1.0"><defs><g/><clipPath id="b819d2ec2b"><path d="M 20 34 L 32 34 L 32 57.546875 L 20 57.546875 Z M 20 34 " clip-rule="nonzero"/></clipPath><clipPath id="5a85b13a65"><path d="M 7.5 23 L 27 23 L 27 37 L 7.5 37 Z M 7.5 23 " clip-rule="nonzero"/></clipPath></defs><path fill="#ffffff" d="M 13.003906 37.808594 C 12.746094 37.519531 12.632812 37.125 12.675781 36.742188 L 12.679688 36.726562 C 12.6875 36.664062 12.710938 36.601562 12.753906 36.546875 C 13.082031 36.128906 13.289062 35.773438 13.289062 35.773438 C 11.46875 36.46875 8.863281 33.949219 8.863281 33.949219 C 8.863281 33.949219 8.828125 34.0625 8.8125 34.273438 L 8.8125 34.265625 C 8.8125 34.265625 8.722656 34.535156 8.703125 34.90625 C 8.703125 34.941406 8.691406 34.976562 8.675781 35.003906 L 8.671875 35.003906 C 8.613281 35.105469 8.554688 35.226562 8.511719 35.367188 C 8.492188 35.4375 8.46875 35.511719 8.457031 35.585938 C 8.449219 35.625 8.441406 35.664062 8.433594 35.703125 C 8.425781 35.742188 8.421875 35.785156 8.421875 35.824219 C 8.417969 35.863281 8.414062 35.90625 8.410156 35.949219 L 8.410156 35.953125 C 8.410156 35.988281 8.410156 36.042969 8.410156 36.074219 C 8.410156 36.117188 8.410156 36.160156 8.410156 36.203125 C 8.414062 36.25 8.414062 36.292969 8.417969 36.335938 C 8.429688 36.421875 8.4375 36.511719 8.453125 36.601562 C 8.464844 36.6875 8.488281 36.777344 8.507812 36.867188 C 8.527344 36.953125 8.550781 37.042969 8.582031 37.128906 C 8.59375 37.171875 8.609375 37.214844 8.621094 37.257812 L 8.660156 37.371094 C 8.691406 37.453125 8.71875 37.53125 8.746094 37.609375 L 8.769531 37.671875 L 8.789062 37.722656 C 8.796875 37.757812 8.808594 37.792969 8.820312 37.828125 C 8.84375 37.898438 8.871094 37.964844 8.890625 38.039062 C 8.902344 38.074219 8.914062 38.109375 8.921875 38.144531 C 8.933594 38.179688 8.945312 38.214844 8.953125 38.25 C 8.972656 38.320312 8.992188 38.386719 9.011719 38.457031 C 9.023438 38.523438 9.039062 38.589844 9.054688 38.652344 C 9.066406 38.71875 9.078125 38.78125 9.089844 38.839844 C 9.101562 38.902344 9.109375 38.960938 9.117188 39.019531 C 9.121094 39.078125 9.128906 39.136719 9.132812 39.1875 C 9.132812 39.242188 9.136719 39.292969 9.136719 39.34375 C 9.136719 39.441406 9.132812 39.527344 9.125 39.601562 C 9.117188 39.675781 9.105469 39.734375 9.09375 39.773438 C 9.085938 39.816406 9.078125 39.839844 9.078125 39.839844 C 9.078125 39.839844 9.097656 39.828125 9.136719 39.804688 C 9.15625 39.792969 9.179688 39.78125 9.203125 39.757812 C 9.214844 39.75 9.230469 39.738281 9.242188 39.726562 C 9.257812 39.714844 9.269531 39.699219 9.285156 39.683594 C 9.347656 39.625 9.410156 39.546875 9.472656 39.445312 C 9.503906 39.398438 9.53125 39.339844 9.5625 39.28125 C 9.582031 39.234375 9.601562 39.1875 9.621094 39.136719 C 9.824219 39.367188 10.109375 39.574219 10.503906 39.71875 C 10.503906 39.71875 9.886719 39.203125 9.828125 38.371094 C 9.917969 38.3125 10.035156 38.335938 10.09375 38.421875 C 10.140625 38.492188 10.1875 38.558594 10.238281 38.621094 C 10.246094 38.640625 10.253906 38.660156 10.261719 38.675781 C 10.292969 38.742188 10.324219 38.808594 10.351562 38.878906 C 10.363281 38.914062 10.378906 38.945312 10.394531 38.980469 C 10.40625 39.015625 10.421875 39.046875 10.433594 39.082031 C 10.457031 39.148438 10.484375 39.214844 10.511719 39.28125 C 10.53125 39.347656 10.550781 39.410156 10.574219 39.472656 C 10.59375 39.535156 10.609375 39.597656 10.628906 39.65625 C 10.644531 39.71875 10.65625 39.777344 10.671875 39.832031 C 10.683594 39.890625 10.695312 39.945312 10.703125 40 C 10.710938 40.050781 10.71875 40.101562 10.722656 40.152344 C 10.734375 40.25 10.738281 40.335938 10.734375 40.410156 C 10.734375 40.484375 10.730469 40.542969 10.722656 40.585938 C 10.71875 40.628906 10.710938 40.652344 10.710938 40.652344 C 10.710938 40.652344 10.734375 40.640625 10.769531 40.613281 C 10.785156 40.601562 10.808594 40.582031 10.828125 40.558594 C 10.839844 40.546875 10.855469 40.535156 10.867188 40.523438 C 10.878906 40.507812 10.890625 40.492188 10.90625 40.476562 C 10.960938 40.414062 11.015625 40.328125 11.066406 40.222656 C 11.09375 40.167969 11.113281 40.113281 11.140625 40.050781 C 11.160156 39.988281 11.179688 39.921875 11.199219 39.847656 C 11.210938 39.777344 11.226562 39.703125 11.238281 39.628906 C 11.238281 39.609375 11.238281 39.589844 11.242188 39.574219 C 11.558594 39.789062 11.925781 39.980469 12.351562 40.140625 C 12.351562 40.140625 11.957031 39.8125 11.582031 39.222656 C 11.347656 38.859375 11.417969 38.378906 11.742188 38.09375 L 11.753906 38.097656 C 11.761719 38.113281 11.773438 38.128906 11.785156 38.140625 C 11.816406 38.183594 11.851562 38.226562 11.878906 38.273438 C 11.910156 38.316406 11.945312 38.359375 11.972656 38.40625 C 12 38.449219 12.03125 38.492188 12.0625 38.535156 C 12.085938 38.578125 12.113281 38.617188 12.140625 38.660156 C 12.164062 38.703125 12.191406 38.742188 12.214844 38.78125 C 12.238281 38.820312 12.257812 38.859375 12.28125 38.898438 C 12.300781 38.9375 12.316406 38.976562 12.335938 39.011719 C 12.355469 39.050781 12.371094 39.085938 12.382812 39.117188 C 12.410156 39.1875 12.433594 39.25 12.449219 39.304688 C 12.464844 39.363281 12.476562 39.40625 12.480469 39.441406 C 12.484375 39.472656 12.488281 39.492188 12.488281 39.492188 C 12.488281 39.492188 12.503906 39.484375 12.53125 39.460938 C 12.542969 39.449219 12.558594 39.433594 12.574219 39.410156 C 12.582031 39.402344 12.59375 39.390625 12.601562 39.378906 C 12.609375 39.367188 12.621094 39.355469 12.628906 39.339844 C 12.667969 39.285156 12.703125 39.214844 12.734375 39.125 C 12.75 39.082031 12.761719 39.03125 12.773438 38.980469 C 12.785156 38.929688 12.792969 38.875 12.800781 38.816406 C 12.800781 38.785156 12.804688 38.75 12.804688 38.714844 C 13.375 38.960938 14.101562 39.078125 15 38.882812 C 15 38.882812 13.835938 38.742188 13.003906 37.808594 " fill-opacity="1" fill-rule="nonzero"/><g clip-path="url(#b819d2ec2b)"><path fill="#ffffff" d="M 27.726562 44.824219 C 33.585938 38.207031 31.640625 34.371094 31.640625 34.371094 C 30.460938 39.234375 25.082031 43.21875 25.082031 43.21875 C 16.113281 50.207031 24.464844 57.195312 24.464844 57.195312 C 24.464844 57.195312 21.867188 51.445312 27.726562 44.824219 " fill-opacity="1" fill-rule="nonzero"/></g><path fill="#ffffff" d="M 27.726562 38.703125 C 33.894531 31.34375 27.726562 29.546875 27.726562 29.546875 C 30.59375 33.300781 26.921875 36.929688 26.921875 36.929688 C 29.621094 29.925781 24.28125 30.414062 24.28125 30.414062 C 26.839844 33.714844 24.035156 34.128906 18.34375 41.054688 C 12.652344 47.984375 20.929688 56.3125 20.929688 56.3125 C 17.414062 45.34375 21.558594 46.0625 27.726562 38.703125 " fill-opacity="1" fill-rule="nonzero"/><path fill="#ffffff" d="M 17.1875 40.890625 C 10.589844 45.921875 17.1875 53.261719 17.1875 53.261719 C 14.054688 46.992188 17.1875 40.890625 17.1875 40.890625 " fill-opacity="1" fill-rule="nonzero"/><path fill="#ffffff" d="M 20.695312 20.066406 C 17.117188 20.367188 16.335938 23.390625 16.222656 23.914062 C 16.746094 23.738281 17.371094 23.617188 18.113281 23.609375 C 18.40625 21.09375 20.695312 20.066406 20.695312 20.066406 " fill-opacity="1" fill-rule="nonzero"/><path fill="#ffffff" d="M 31.539062 26.210938 C 34.675781 26.292969 39.046875 30.085938 39.046875 30.085938 C 39.046875 30.085938 39.210938 29.589844 35.871094 26.539062 C 32.53125 23.488281 25.148438 23.695312 25.148438 23.695312 C 29.847656 22.414062 31.5 24.148438 34.921875 24.847656 C 38.34375 25.550781 39.046875 22.457031 39.046875 22.457031 C 39.046875 22.457031 35.167969 23.652344 31.292969 22.003906 C 27.417969 20.355469 24.488281 22.167969 24.488281 22.167969 C 25.734375 22.050781 26.796875 22.375 26.796875 22.375 C 24.488281 22.167969 21.601562 23.777344 21.601562 23.777344 C 25.726562 19.15625 30.632812 21.097656 30.632812 21.097656 C 30.632812 21.097656 32.816406 22.457031 33.933594 22.167969 C 35.046875 21.878906 35.992188 20.355469 35.992188 20.355469 C 33.765625 20.847656 31.992188 20.476562 31.992188 20.476562 C 31.992188 20.476562 27.457031 17.796875 23.457031 19.199219 C 20.007812 20.40625 18.523438 22.933594 18.179688 23.609375 C 18.191406 23.609375 18.203125 23.605469 18.214844 23.605469 C 18.75 23.605469 19.320312 23.664062 19.917969 23.773438 L 19.925781 23.773438 C 20.230469 23.773438 21.132812 23.816406 21.6875 24.300781 C 21.75 24.320312 21.816406 24.34375 21.878906 24.363281 C 22.363281 24.167969 23.304688 23.84375 24.207031 23.84375 C 25.386719 23.84375 26.152344 24.390625 26.421875 25.425781 C 26.605469 26.136719 26.558594 26.808594 26.285156 27.410156 C 35.730469 32.492188 31.023438 42.660156 31.023438 42.660156 C 25.417969 49.359375 28.425781 51.507812 28.425781 51.507812 C 28.820312 48.339844 31.015625 45.855469 32.542969 44.480469 C 33.855469 43.296875 34.777344 41.738281 35.136719 40.007812 C 37.074219 30.722656 27.417969 27.242188 27.417969 27.242188 C 41.273438 30.457031 35.5 42.871094 35.5 42.871094 C 35.5 42.871094 39.046875 41.179688 39.046875 34.992188 C 39.046875 28.808594 31.539062 26.210938 31.539062 26.210938 " fill-opacity="1" fill-rule="nonzero"/><g clip-path="url(#5a85b13a65)"><path fill="#ffffff" d="M 16.007812 27.28125 C 16.007812 27.28125 16.53125 26.15625 18.261719 26.757812 C 18.261719 26.757812 18.015625 27.667969 16.40625 27.75 C 16.40625 27.75 14.082031 28.683594 13.78125 28.65625 Z M 9.410156 33.054688 C 10.472656 35.179688 12.441406 35.257812 13.226562 35.191406 C 13.449219 35.175781 13.664062 35.097656 13.847656 34.964844 C 13.867188 34.953125 13.882812 34.941406 13.902344 34.929688 C 16.203125 35.542969 18.261719 34.683594 18.261719 34.683594 C 16.484375 35.019531 15.152344 34.816406 14.304688 34.558594 C 14.445312 34.394531 14.554688 34.226562 14.636719 34.066406 C 16.886719 34.613281 18.867188 33.789062 18.867188 33.789062 C 17.015625 34.136719 15.648438 33.902344 14.804688 33.628906 C 14.828125 33.550781 14.84375 33.476562 14.855469 33.40625 C 14.859375 33.375 14.863281 33.339844 14.867188 33.308594 C 17.105469 33.847656 19.074219 33.023438 19.074219 33.023438 C 17.035156 33.410156 15.578125 33.085938 14.769531 32.785156 C 14.746094 32.738281 14.722656 32.691406 14.691406 32.644531 L 14.257812 31.984375 C 14.257812 31.984375 17.230469 32.929688 18.960938 32.929688 C 20.695312 32.929688 20.242188 36.105469 20.242188 36.105469 C 23.953125 33.425781 21.808594 31.734375 21.808594 31.734375 C 22.839844 31.53125 23.40625 32.765625 23.40625 32.765625 C 23.355469 30.953125 21.929688 29.546875 21.929688 29.546875 C 24.074219 27.402344 22.960938 26.003906 22.960938 26.003906 C 22.960938 26.003906 23.992188 25.097656 24.902344 25.796875 C 25.808594 26.5 23.992188 29.015625 23.992188 29.015625 C 23.992188 29.015625 26.757812 28.023438 26.101562 25.507812 C 25.449219 22.992188 21.683594 24.808594 21.683594 24.808594 C 21.273438 24.066406 19.886719 24.105469 19.886719 24.105469 C 15 23.175781 13.886719 26.394531 13.886719 26.394531 C 9 27.199219 7.882812 30.082031 7.882812 30.082031 C 9.019531 29.128906 10.921875 29.398438 10.921875 29.398438 C 9.929688 29.671875 8.996094 31.625 8.996094 31.625 C 8.941406 30.910156 7.886719 30.140625 7.886719 30.140625 C 7.511719 30.734375 7.898438 31.871094 7.898438 31.871094 C 7.730469 33.632812 9.410156 33.054688 9.410156 33.054688 " fill-opacity="1" fill-rule="nonzero"/></g><g fill="#ffffff" fill-opacity="1"><g transform="translate(42.380663, 42.262365)"><g><path d="M 1.0625 0 L 1.0625 -10 L 3.9375 -10 L 3.9375 -2.671875 L 8.03125 -2.671875 L 8.03125 0 Z M 1.0625 0 "/></g></g></g><g fill="#ffffff" fill-opacity="1"><g transform="translate(50.767209, 42.262365)"><g><path d="M 1.0625 0 L 1.0625 -10 L 7.90625 -10 L 7.90625 -7.671875 L 3.90625 -7.671875 L 3.90625 -6.21875 L 7.53125 -6.21875 L 7.53125 -3.90625 L 3.90625 -3.90625 L 3.90625 -2.359375 L 8.0625 -2.359375 L 8.0625 0 Z M 1.0625 0 "/></g></g></g><g fill="#ffffff" fill-opacity="1"><g transform="translate(59.482359, 42.262365)"><g><path d="M 5.921875 0.21875 C 5.128906 0.21875 4.398438 0.09375 3.734375 -0.15625 C 3.066406 -0.414062 2.488281 -0.773438 2 -1.234375 C 1.519531 -1.703125 1.144531 -2.253906 0.875 -2.890625 C 0.613281 -3.535156 0.484375 -4.238281 0.484375 -5 C 0.484375 -5.757812 0.613281 -6.457031 0.875 -7.09375 C 1.144531 -7.726562 1.519531 -8.28125 2 -8.75 C 2.488281 -9.21875 3.066406 -9.578125 3.734375 -9.828125 C 4.398438 -10.085938 5.128906 -10.21875 5.921875 -10.21875 C 6.722656 -10.21875 7.453125 -10.085938 8.109375 -9.828125 C 8.773438 -9.578125 9.347656 -9.21875 9.828125 -8.75 C 10.316406 -8.28125 10.695312 -7.726562 10.96875 -7.09375 C 11.238281 -6.457031 11.375 -5.757812 11.375 -5 C 11.375 -4.238281 11.238281 -3.535156 10.96875 -2.890625 C 10.695312 -2.253906 10.316406 -1.703125 9.828125 -1.234375 C 9.347656 -0.773438 8.773438 -0.414062 8.109375 -0.15625 C 7.453125 0.09375 6.722656 0.21875 5.921875 0.21875 Z M 3.40625 -5 C 3.40625 -4.5 3.515625 -4.054688 3.734375 -3.671875 C 3.953125 -3.285156 4.25 -2.984375 4.625 -2.765625 C 5.007812 -2.554688 5.441406 -2.453125 5.921875 -2.453125 C 6.421875 -2.453125 6.859375 -2.554688 7.234375 -2.765625 C 7.609375 -2.984375 7.898438 -3.285156 8.109375 -3.671875 C 8.328125 -4.054688 8.4375 -4.5 8.4375 -5 C 8.4375 -5.5 8.328125 -5.9375 8.109375 -6.3125 C 7.898438 -6.695312 7.609375 -7 7.234375 -7.21875 C 6.859375 -7.4375 6.421875 -7.546875 5.921875 -7.546875 C 5.441406 -7.546875 5.007812 -7.4375 4.625 -7.21875 C 4.25 -7 3.953125 -6.695312 3.734375 -6.3125 C 3.515625 -5.9375 3.40625 -5.5 3.40625 -5 Z M 3.40625 -5 "/></g></g></g><g fill="#ffffff" fill-opacity="1"><g transform="translate(71.354959, 42.262365)"><g/></g></g><g fill="#ffffff" fill-opacity="1"><g transform="translate(74.655285, 42.262365)"><g><path d="M 1.0625 0 L 1.0625 -10 L 7.90625 -10 L 7.90625 -7.671875 L 3.90625 -7.671875 L 3.90625 -6.21875 L 7.53125 -6.21875 L 7.53125 -3.90625 L 3.90625 -3.90625 L 3.90625 -2.359375 L 8.0625 -2.359375 L 8.0625 0 Z M 1.0625 0 "/></g></g></g><g fill="#ffffff" fill-opacity="1"><g transform="translate(83.370435, 42.262365)"><g><path d="M 0.296875 0 L 3.609375 -5.09375 L 0.46875 -10 L 3.703125 -10 L 4.5625 -8.609375 L 5.5 -7.109375 L 6.421875 -8.609375 L 7.296875 -10 L 10.515625 -10 L 7.390625 -5.125 L 10.703125 0 L 7.328125 0 L 6.328125 -1.625 L 5.5 -2.953125 L 3.65625 0 Z M 0.296875 0 "/></g></g></g><g fill="#ffffff" fill-opacity="1"><g transform="translate(94.385813, 42.262365)"><g><path d="M 1.0625 0 L 1.0625 -10 L 5.265625 -10 C 6.117188 -10 6.851562 -9.84375 7.46875 -9.53125 C 8.09375 -9.226562 8.570312 -8.796875 8.90625 -8.234375 C 9.25 -7.671875 9.421875 -7.003906 9.421875 -6.234375 C 9.421875 -5.472656 9.25 -4.8125 8.90625 -4.25 C 8.570312 -3.6875 8.09375 -3.25 7.46875 -2.9375 C 6.851562 -2.625 6.117188 -2.46875 5.265625 -2.46875 L 3.9375 -2.46875 L 3.9375 0 Z M 3.90625 -4.890625 L 5 -4.890625 C 5.476562 -4.890625 5.847656 -5.003906 6.109375 -5.234375 C 6.378906 -5.472656 6.515625 -5.804688 6.515625 -6.234375 C 6.515625 -6.648438 6.378906 -6.972656 6.109375 -7.203125 C 5.847656 -7.441406 5.476562 -7.5625 5 -7.5625 L 3.90625 -7.5625 Z M 3.90625 -4.890625 "/></g></g></g><g fill="#ffffff" fill-opacity="1"><g transform="translate(104.14392, 42.262365)"><g><path d="M 1.0625 0 L 1.0625 -10 L 5.609375 -10 C 6.421875 -10 7.117188 -9.851562 7.703125 -9.5625 C 8.285156 -9.269531 8.738281 -8.859375 9.0625 -8.328125 C 9.382812 -7.796875 9.546875 -7.15625 9.546875 -6.40625 C 9.546875 -5.71875 9.398438 -5.113281 9.109375 -4.59375 C 8.828125 -4.070312 8.421875 -3.664062 7.890625 -3.375 L 9.71875 0 L 6.453125 0 L 5.03125 -2.84375 L 3.9375 -2.84375 L 3.9375 0 Z M 3.890625 -5.140625 L 5.234375 -5.140625 C 5.679688 -5.140625 6.023438 -5.25 6.265625 -5.46875 C 6.515625 -5.6875 6.640625 -5.992188 6.640625 -6.390625 C 6.640625 -6.796875 6.515625 -7.101562 6.265625 -7.3125 C 6.023438 -7.53125 5.679688 -7.640625 5.234375 -7.640625 L 3.890625 -7.640625 Z M 3.890625 -5.140625 "/></g></g></g><g fill="#ffffff" fill-opacity="1"><g transform="translate(114.43065, 42.262365)"><g><path d="M 1.0625 0 L 1.0625 -10 L 7.90625 -10 L 7.90625 -7.671875 L 3.90625 -7.671875 L 3.90625 -6.21875 L 7.53125 -6.21875 L 7.53125 -3.90625 L 3.90625 -3.90625 L 3.90625 -2.359375 L 8.0625 -2.359375 L 8.0625 0 Z M 1.0625 0 "/></g></g></g><g fill="#ffffff" fill-opacity="1"><g transform="translate(123.1458, 42.262365)"><g><path d="M 4.640625 0.21875 C 3.347656 0.21875 2.332031 -0.0859375 1.59375 -0.703125 C 0.863281 -1.316406 0.5 -2.160156 0.5 -3.234375 L 3.28125 -3.234375 C 3.28125 -2.859375 3.394531 -2.5625 3.625 -2.34375 C 3.863281 -2.132812 4.1875 -2.03125 4.59375 -2.03125 C 4.945312 -2.03125 5.222656 -2.097656 5.421875 -2.234375 C 5.628906 -2.367188 5.734375 -2.5625 5.734375 -2.8125 C 5.734375 -3.363281 5.128906 -3.757812 3.921875 -4 C 1.691406 -4.425781 0.578125 -5.476562 0.578125 -7.15625 C 0.578125 -8.09375 0.914062 -8.835938 1.59375 -9.390625 C 2.269531 -9.941406 3.203125 -10.21875 4.390625 -10.21875 C 5.203125 -10.21875 5.910156 -10.078125 6.515625 -9.796875 C 7.117188 -9.515625 7.582031 -9.117188 7.90625 -8.609375 C 8.238281 -8.109375 8.40625 -7.515625 8.40625 -6.828125 L 5.703125 -6.828125 C 5.703125 -7.203125 5.59375 -7.488281 5.375 -7.6875 C 5.15625 -7.894531 4.84375 -8 4.4375 -8 C 4.101562 -8 3.835938 -7.925781 3.640625 -7.78125 C 3.441406 -7.644531 3.34375 -7.457031 3.34375 -7.21875 C 3.34375 -6.957031 3.472656 -6.738281 3.734375 -6.5625 C 4.003906 -6.394531 4.457031 -6.238281 5.09375 -6.09375 C 6.3125 -5.832031 7.195312 -5.445312 7.75 -4.9375 C 8.3125 -4.425781 8.59375 -3.753906 8.59375 -2.921875 C 8.59375 -1.941406 8.242188 -1.171875 7.546875 -0.609375 C 6.859375 -0.0546875 5.890625 0.21875 4.640625 0.21875 Z M 4.640625 0.21875 "/></g></g></g><g fill="#ffffff" fill-opacity="1"><g transform="translate(132.275267, 42.262365)"><g><path d="M 4.640625 0.21875 C 3.347656 0.21875 2.332031 -0.0859375 1.59375 -0.703125 C 0.863281 -1.316406 0.5 -2.160156 0.5 -3.234375 L 3.28125 -3.234375 C 3.28125 -2.859375 3.394531 -2.5625 3.625 -2.34375 C 3.863281 -2.132812 4.1875 -2.03125 4.59375 -2.03125 C 4.945312 -2.03125 5.222656 -2.097656 5.421875 -2.234375 C 5.628906 -2.367188 5.734375 -2.5625 5.734375 -2.8125 C 5.734375 -3.363281 5.128906 -3.757812 3.921875 -4 C 1.691406 -4.425781 0.578125 -5.476562 0.578125 -7.15625 C 0.578125 -8.09375 0.914062 -8.835938 1.59375 -9.390625 C 2.269531 -9.941406 3.203125 -10.21875 4.390625 -10.21875 C 5.203125 -10.21875 5.910156 -10.078125 6.515625 -9.796875 C 7.117188 -9.515625 7.582031 -9.117188 7.90625 -8.609375 C 8.238281 -8.109375 8.40625 -7.515625 8.40625 -6.828125 L 5.703125 -6.828125 C 5.703125 -7.203125 5.59375 -7.488281 5.375 -7.6875 C 5.15625 -7.894531 4.84375 -8 4.4375 -8 C 4.101562 -8 3.835938 -7.925781 3.640625 -7.78125 C 3.441406 -7.644531 3.34375 -7.457031 3.34375 -7.21875 C 3.34375 -6.957031 3.472656 -6.738281 3.734375 -6.5625 C 4.003906 -6.394531 4.457031 -6.238281 5.09375 -6.09375 C 6.3125 -5.832031 7.195312 -5.445312 7.75 -4.9375 C 8.3125 -4.425781 8.59375 -3.753906 8.59375 -2.921875 C 8.59375 -1.941406 8.242188 -1.171875 7.546875 -0.609375 C 6.859375 -0.0546875 5.890625 0.21875 4.640625 0.21875 Z M 4.640625 0.21875 "/></g></g></g></svg>